<svg xmlns="http://www.w3.org/2000/svg" width="176" height="46" viewBox="0 0 176 46" fill="none">
  <path d="M51.7753 25.7949L51.7018 26.1194H70.21L70.2881 25.7732H76.2526L81.5789 15.7097H84.1738L85.0479 25.7598H93.3379L91.0025 8.8355H77.2359L76.7442 9.54573L71.1124 19.372L60.719 19.3853L65.1127 0H57.6176L52.0927 24.3936L49.9507 8.87056H36.184L35.6924 9.58079L28.7281 21.7319L31.3194 10.2932H16.1739L14.3264 18.4501L20.897 18.433L19.8513 23.1185L12.601 23.1357L10.2655 15.0984L17.6379 7.60844H31.9817L33.6026 0.238133L12.479 0.255261L0 14.5683L5.73406 31.9424H17.8645L14.9887 44.5283H23.5637L27.8046 25.8083H35.2007L40.5271 15.7448H43.122L43.9961 25.7949H51.7753Z" fill="url(#paint0_radial_235_84)"/>
  <path d="M102.997 34.6785H95.6679L95.659 34.6872L95.3998 35.1608L90.4481 45.9912H95.1406L97.9739 39.2737H99.3593L99.8241 45.9912H104.239L108.047 45.9912L110.076 34.6609H106.277L104.239 45.9912L102.997 34.6785Z" fill="url(#paint1_radial_235_84)"/>
  <path d="M102.327 29.3817L102.827 33.2052H96.1148L97.8577 29.3817H102.327Z" fill="url(#paint2_radial_235_84)"/>
  <path d="M29.3664 34.6434H38.7423L38.0183 38.8616H32.2713L31.8244 41.2995H37.5625L36.7223 45.9824H27.3197L29.3664 34.6434Z" fill="url(#paint3_radial_235_84)"/>
  <path d="M30.287 29.3904H39.6987L38.9926 33.214H29.5899L30.287 29.3904Z" fill="url(#paint4_radial_235_84)"/>
  <path d="M51.6218 29.3904H62.4367L61.7485 33.2315H58.4497L56.0551 45.9824H52.0866L54.396 33.2315H50.9247L51.6218 29.3904Z" fill="url(#paint5_radial_235_84)"/>
  <path d="M71.4998 34.6434H62.1239L60.0771 45.9824H69.4798L70.32 41.2995H64.5818L65.0287 38.8616H70.7758L71.4998 34.6434Z" fill="url(#paint6_radial_235_84)"/>
  <path d="M72.4651 29.3904H63.0535L62.3563 33.214H71.759L72.4651 29.3904Z" fill="url(#paint7_radial_235_84)"/>
  <path d="M73.3231 29.3904H80.1338L80.822 29.4781C81.9482 29.6272 82.6454 30.3112 82.9135 31.5302C83.0923 32.3633 83.1906 33.1438 83.1906 33.8542C83.1906 35.7221 82.5471 37.0989 81.26 37.9846L79.7226 38.7827L81.5281 45.9912H77.4078L75.5665 38.9756L74.199 45.9912H70.2395L72.331 34.6171H79.1507L79.6243 34.5382L79.8657 34.4242L80.0623 34.2751L80.1695 34.0032V33.784L80.0623 33.5122L79.821 33.3192L79.5528 33.2227L72.5723 33.1877L73.3231 29.3904Z" fill="url(#paint8_radial_235_84)"/>
  <path d="M106.536 33.2051L107.225 29.3992H111.032L110.335 33.2051H106.536Z" fill="url(#paint9_radial_235_84)"/>
  <path d="M123.349 29.3904L120.354 45.9912H123.93L125.109 39.4842V45.9912H127.943L130.794 39.2825L129.56 45.9912H133.591L136.577 29.3817H131.884L127.657 38.2038L127.639 29.3904H123.349Z" fill="url(#paint10_radial_235_84)"/>
  <path d="M137.614 34.6434H146.989L146.265 38.8616H140.518L140.071 41.2995H145.81L144.969 45.9824H135.567L137.614 34.6434Z" fill="url(#paint11_radial_235_84)"/>
  <path d="M138.543 29.3904H147.955L147.249 33.214H137.846L138.543 29.3904Z" fill="url(#paint12_radial_235_84)"/>
  <path d="M37.0308 6.65955H49.6365L48.6942 0.937707H40.3086L37.0308 6.65955Z" fill="url(#paint13_radial_235_84)"/>
  <path d="M91.5776 11.4652L101.221 0.404329H117.734L116.225 6.04711H105.194L99.6049 12.2714L101.221 18.5749H113.424L112.09 24.9049H95.9953L91.5776 11.4652Z" fill="url(#paint14_radial_235_84)"/>
  <path d="M144.969 2.80113H120.533L118.951 8.24705H126.779L121.57 26.2948H130.544L135.693 8.24705H143.405L144.969 2.80113Z" fill="url(#paint15_radial_235_84)"/>
  <path d="M151.806 6.48495H144.628L145.934 0.751011H153.126L151.806 6.48495Z" fill="url(#paint16_radial_235_84)"/>
  <path d="M140.283 25.7645L144.133 8.68414H151.311L150.978 10.1643L159.487 0.404329H176L174.492 6.04711H163.461L157.871 12.2714L159.487 18.5749H171.69L170.357 24.9049H154.262L150.344 12.9871L147.474 25.7645H140.283Z" fill="url(#paint17_radial_235_84)"/>
  <path d="M90.6884 6.62449H78.0826L81.3604 0.902648H89.746L90.6884 6.62449Z" fill="url(#paint18_radial_235_84)"/>
  <path d="M44.8737 29.3817L45.5798 33.1965H39.6361L40.3243 29.3817H44.8737Z" fill="url(#paint19_radial_235_84)"/>
  <path d="M50.2365 33.1965L50.9247 29.3904L47.43 29.3817L46.7328 33.1965H50.2365Z" fill="url(#paint20_radial_235_84)"/>
  <path d="M46.1697 36.3359L46.4736 34.6434H49.9773L47.9305 45.9912H43.9442L42.2281 38.9931L40.9589 45.9912H37.3391L39.3769 34.6434H45.8569L46.1697 36.3359Z" fill="url(#paint21_radial_235_84)"/>
  <path d="M84.6296 29.3904H95.4445L94.7562 33.2315H91.4574L89.0628 45.9824H85.0943L87.4037 33.2315H83.9324L84.6296 29.3904Z" fill="url(#paint22_radial_235_84)"/>
  <path d="M116.323 29.3904L117.03 33.2052H111.086L111.774 29.3904H116.323Z" fill="url(#paint23_radial_235_84)"/>
  <path d="M121.686 33.2052L122.374 29.3992L118.871 29.3904L118.183 33.2052H121.686Z" fill="url(#paint24_radial_235_84)"/>
  <path d="M117.619 36.3447L117.923 34.6522H121.427L119.38 46H115.394L113.678 39.0019L112.409 46H108.789L110.827 34.6522H117.298L117.619 36.3447Z" fill="url(#paint25_radial_235_84)"/>
  <path d="M153.89 33.1965L153.183 29.3817H148.634L147.946 33.1965H153.89Z" fill="url(#paint26_radial_235_84)"/>
  <path d="M159.234 29.3904L158.546 33.1965H155.051L155.74 29.3817L159.234 29.3904Z" fill="url(#paint27_radial_235_84)"/>
  <path d="M154.783 34.6434L154.479 36.3359L154.167 34.6434H147.687L145.649 45.9912H149.269L150.538 38.9931L152.254 45.9912H156.24L158.287 34.6434H154.783Z" fill="url(#paint28_radial_235_84)"/>
  <path d="M170.746 29.3904H159.932L159.234 33.2315H162.706L160.396 45.9824H164.365L166.759 33.2315H170.058L170.746 29.3904Z" fill="url(#paint29_radial_235_84)"/>
  <defs>
    <radialGradient id="paint0_radial_235_84" cx="0" cy="0" r="1" gradientUnits="userSpaceOnUse" gradientTransform="translate(88 23) rotate(1.8978) scale(173.628 45.3802)">
      <stop offset="0.373716" stop-color="#D5D5D5"/>
      <stop offset="1" stop-color="#6F6F6F"/>
    </radialGradient>
    <radialGradient id="paint1_radial_235_84" cx="0" cy="0" r="1" gradientUnits="userSpaceOnUse" gradientTransform="translate(88 23) rotate(1.8978) scale(173.628 45.3802)">
      <stop offset="0.373716" stop-color="#D5D5D5"/>
      <stop offset="1" stop-color="#6F6F6F"/>
    </radialGradient>
    <radialGradient id="paint2_radial_235_84" cx="0" cy="0" r="1" gradientUnits="userSpaceOnUse" gradientTransform="translate(88 23) rotate(1.8978) scale(173.628 45.3802)">
      <stop offset="0.373716" stop-color="#D5D5D5"/>
      <stop offset="1" stop-color="#6F6F6F"/>
    </radialGradient>
    <radialGradient id="paint3_radial_235_84" cx="0" cy="0" r="1" gradientUnits="userSpaceOnUse" gradientTransform="translate(88 23) rotate(1.8978) scale(173.628 45.3802)">
      <stop offset="0.373716" stop-color="#D5D5D5"/>
      <stop offset="1" stop-color="#6F6F6F"/>
    </radialGradient>
    <radialGradient id="paint4_radial_235_84" cx="0" cy="0" r="1" gradientUnits="userSpaceOnUse" gradientTransform="translate(88 23) rotate(1.8978) scale(173.628 45.3802)">
      <stop offset="0.373716" stop-color="#D5D5D5"/>
      <stop offset="1" stop-color="#6F6F6F"/>
    </radialGradient>
    <radialGradient id="paint5_radial_235_84" cx="0" cy="0" r="1" gradientUnits="userSpaceOnUse" gradientTransform="translate(88 23) rotate(1.8978) scale(173.628 45.3802)">
      <stop offset="0.373716" stop-color="#D5D5D5"/>
      <stop offset="1" stop-color="#6F6F6F"/>
    </radialGradient>
    <radialGradient id="paint6_radial_235_84" cx="0" cy="0" r="1" gradientUnits="userSpaceOnUse" gradientTransform="translate(88 23) rotate(1.8978) scale(173.628 45.3802)">
      <stop offset="0.373716" stop-color="#D5D5D5"/>
      <stop offset="1" stop-color="#6F6F6F"/>
    </radialGradient>
    <radialGradient id="paint7_radial_235_84" cx="0" cy="0" r="1" gradientUnits="userSpaceOnUse" gradientTransform="translate(88 23) rotate(1.8978) scale(173.628 45.3802)">
      <stop offset="0.373716" stop-color="#D5D5D5"/>
      <stop offset="1" stop-color="#6F6F6F"/>
    </radialGradient>
    <radialGradient id="paint8_radial_235_84" cx="0" cy="0" r="1" gradientUnits="userSpaceOnUse" gradientTransform="translate(88 23) rotate(1.8978) scale(173.628 45.3802)">
      <stop offset="0.373716" stop-color="#D5D5D5"/>
      <stop offset="1" stop-color="#6F6F6F"/>
    </radialGradient>
    <radialGradient id="paint9_radial_235_84" cx="0" cy="0" r="1" gradientUnits="userSpaceOnUse" gradientTransform="translate(88 23) rotate(1.8978) scale(173.628 45.3802)">
      <stop offset="0.373716" stop-color="#D5D5D5"/>
      <stop offset="1" stop-color="#6F6F6F"/>
    </radialGradient>
    <radialGradient id="paint10_radial_235_84" cx="0" cy="0" r="1" gradientUnits="userSpaceOnUse" gradientTransform="translate(88 23) rotate(1.8978) scale(173.628 45.3802)">
      <stop offset="0.373716" stop-color="#D5D5D5"/>
      <stop offset="1" stop-color="#6F6F6F"/>
    </radialGradient>
    <radialGradient id="paint11_radial_235_84" cx="0" cy="0" r="1" gradientUnits="userSpaceOnUse" gradientTransform="translate(88 23) rotate(1.8978) scale(173.628 45.3802)">
      <stop offset="0.373716" stop-color="#D5D5D5"/>
      <stop offset="1" stop-color="#6F6F6F"/>
    </radialGradient>
    <radialGradient id="paint12_radial_235_84" cx="0" cy="0" r="1" gradientUnits="userSpaceOnUse" gradientTransform="translate(88 23) rotate(1.8978) scale(173.628 45.3802)">
      <stop offset="0.373716" stop-color="#D5D5D5"/>
      <stop offset="1" stop-color="#6F6F6F"/>
    </radialGradient>
    <radialGradient id="paint13_radial_235_84" cx="0" cy="0" r="1" gradientUnits="userSpaceOnUse" gradientTransform="translate(88 23) rotate(1.8978) scale(173.628 45.3802)">
      <stop offset="0.373716" stop-color="#D5D5D5"/>
      <stop offset="1" stop-color="#6F6F6F"/>
    </radialGradient>
    <radialGradient id="paint14_radial_235_84" cx="0" cy="0" r="1" gradientUnits="userSpaceOnUse" gradientTransform="translate(88 23) rotate(1.8978) scale(173.628 45.3802)">
      <stop offset="0.373716" stop-color="#D5D5D5"/>
      <stop offset="1" stop-color="#6F6F6F"/>
    </radialGradient>
    <radialGradient id="paint15_radial_235_84" cx="0" cy="0" r="1" gradientUnits="userSpaceOnUse" gradientTransform="translate(88 23) rotate(1.8978) scale(173.628 45.3802)">
      <stop offset="0.373716" stop-color="#D5D5D5"/>
      <stop offset="1" stop-color="#6F6F6F"/>
    </radialGradient>
    <radialGradient id="paint16_radial_235_84" cx="0" cy="0" r="1" gradientUnits="userSpaceOnUse" gradientTransform="translate(88 23) rotate(1.8978) scale(173.628 45.3802)">
      <stop offset="0.373716" stop-color="#D5D5D5"/>
      <stop offset="1" stop-color="#6F6F6F"/>
    </radialGradient>
    <radialGradient id="paint17_radial_235_84" cx="0" cy="0" r="1" gradientUnits="userSpaceOnUse" gradientTransform="translate(88 23) rotate(1.8978) scale(173.628 45.3802)">
      <stop offset="0.373716" stop-color="#D5D5D5"/>
      <stop offset="1" stop-color="#6F6F6F"/>
    </radialGradient>
    <radialGradient id="paint18_radial_235_84" cx="0" cy="0" r="1" gradientUnits="userSpaceOnUse" gradientTransform="translate(88 23) rotate(1.8978) scale(173.628 45.3802)">
      <stop offset="0.373716" stop-color="#D5D5D5"/>
      <stop offset="1" stop-color="#6F6F6F"/>
    </radialGradient>
    <radialGradient id="paint19_radial_235_84" cx="0" cy="0" r="1" gradientUnits="userSpaceOnUse" gradientTransform="translate(88 23) rotate(1.8978) scale(173.628 45.3802)">
      <stop offset="0.373716" stop-color="#D5D5D5"/>
      <stop offset="1" stop-color="#6F6F6F"/>
    </radialGradient>
    <radialGradient id="paint20_radial_235_84" cx="0" cy="0" r="1" gradientUnits="userSpaceOnUse" gradientTransform="translate(88 23) rotate(1.8978) scale(173.628 45.3802)">
      <stop offset="0.373716" stop-color="#D5D5D5"/>
      <stop offset="1" stop-color="#6F6F6F"/>
    </radialGradient>
    <radialGradient id="paint21_radial_235_84" cx="0" cy="0" r="1" gradientUnits="userSpaceOnUse" gradientTransform="translate(88 23) rotate(1.8978) scale(173.628 45.3802)">
      <stop offset="0.373716" stop-color="#D5D5D5"/>
      <stop offset="1" stop-color="#6F6F6F"/>
    </radialGradient>
    <radialGradient id="paint22_radial_235_84" cx="0" cy="0" r="1" gradientUnits="userSpaceOnUse" gradientTransform="translate(88 23) rotate(1.8978) scale(173.628 45.3802)">
      <stop offset="0.373716" stop-color="#D5D5D5"/>
      <stop offset="1" stop-color="#6F6F6F"/>
    </radialGradient>
    <radialGradient id="paint23_radial_235_84" cx="0" cy="0" r="1" gradientUnits="userSpaceOnUse" gradientTransform="translate(88 23) rotate(1.8978) scale(173.628 45.3802)">
      <stop offset="0.373716" stop-color="#D5D5D5"/>
      <stop offset="1" stop-color="#6F6F6F"/>
    </radialGradient>
    <radialGradient id="paint24_radial_235_84" cx="0" cy="0" r="1" gradientUnits="userSpaceOnUse" gradientTransform="translate(88 23) rotate(1.8978) scale(173.628 45.3802)">
      <stop offset="0.373716" stop-color="#D5D5D5"/>
      <stop offset="1" stop-color="#6F6F6F"/>
    </radialGradient>
    <radialGradient id="paint25_radial_235_84" cx="0" cy="0" r="1" gradientUnits="userSpaceOnUse" gradientTransform="translate(88 23) rotate(1.8978) scale(173.628 45.3802)">
      <stop offset="0.373716" stop-color="#D5D5D5"/>
      <stop offset="1" stop-color="#6F6F6F"/>
    </radialGradient>
    <radialGradient id="paint26_radial_235_84" cx="0" cy="0" r="1" gradientUnits="userSpaceOnUse" gradientTransform="translate(88 23) rotate(1.8978) scale(173.628 45.3802)">
      <stop offset="0.373716" stop-color="#D5D5D5"/>
      <stop offset="1" stop-color="#6F6F6F"/>
    </radialGradient>
    <radialGradient id="paint27_radial_235_84" cx="0" cy="0" r="1" gradientUnits="userSpaceOnUse" gradientTransform="translate(88 23) rotate(1.8978) scale(173.628 45.3802)">
      <stop offset="0.373716" stop-color="#D5D5D5"/>
      <stop offset="1" stop-color="#6F6F6F"/>
    </radialGradient>
    <radialGradient id="paint28_radial_235_84" cx="0" cy="0" r="1" gradientUnits="userSpaceOnUse" gradientTransform="translate(88 23) rotate(1.8978) scale(173.628 45.3802)">
      <stop offset="0.373716" stop-color="#D5D5D5"/>
      <stop offset="1" stop-color="#6F6F6F"/>
    </radialGradient>
    <radialGradient id="paint29_radial_235_84" cx="0" cy="0" r="1" gradientUnits="userSpaceOnUse" gradientTransform="translate(88 23) rotate(1.8978) scale(173.628 45.3802)">
      <stop offset="0.373716" stop-color="#D5D5D5"/>
      <stop offset="1" stop-color="#6F6F6F"/>
    </radialGradient>
  </defs>
</svg>